{"accessors":[{"bufferView":2,"componentType":5126,"count":1745,"max":[5.981929779052734,3.3084049224853516,1.1057469844818115],"min":[0,0,0],"type":"VEC3","byteOffset":0},{"bufferView":2,"byteOffset":20940,"componentType":5126,"count":1745,"max":[0.9992507100105286,0.9981505274772644,0.9998669028282166],"min":[-0.9984223246574402,-0.9995532631874084,-0.999915599822998],"type":"VEC3"},{"bufferView":3,"componentType":5126,"count":1745,"max":[0.9927595853805542,0.9998582005500793,0.9997122287750244,1],"min":[-0.9985276460647583,-0.8382918834686279,-0.9970424771308899,-1],"type":"VEC4","byteOffset":0},{"bufferView":1,"componentType":5126,"count":1745,"max":[0.9972000122070312,0.9973999857902527],"min":[0.00279999990016222,0.0026000000070780516],"type":"VEC2","byteOffset":0},{"bufferView":0,"componentType":5125,"count":8316,"max":[1744],"min":[0],"type":"SCALAR","byteOffset":0}],"asset":{"extras":{"author":"daniel132 (https://sketchfab.com/daniel132)","license":"CC-BY-4.0 (http://creativecommons.org/licenses/by/4.0/)","source":"https://sketchfab.com/models/a7fef734bf4544cb8a780a858fa6af97","title":"Banana mark 2"},"generator":"Sketchfab-3.20.7","version":"2.0"},"bufferViews":[{"buffer":0,"byteLength":33264,"byteOffset":0,"name":"floatBufferViews","target":34963},{"buffer":0,"byteLength":13960,"byteOffset":33264,"byteStride":8,"name":"floatBufferViews","target":34962},{"buffer":0,"byteLength":41880,"byteOffset":47224,"byteStride":12,"name":"floatBufferViews","target":34962},{"buffer":0,"byteLength":27920,"byteOffset":89104,"byteStride":16,"name":"floatBufferViews","target":34962},{"buffer":0,"byteOffset":117024,"byteLength":174066},{"buffer":0,"byteOffset":291092,"byteLength":92632}],"buffers":[{"byteLength":383724,"uri":"data:application/octet-stream;base64,"}],"extensionsRequired":["KHR_materials_pbrSpecularGlossiness"],"extensionsUsed":["KHR_materials_pbrSpecularGlossiness"],"images":[{"bufferView":4,"mimeType":"image/png"},{"bufferView":5,"mimeType":"image/png"}],"materials":[{"doubleSided":true,"emissiveFactor":[0,0,0],"extensions":{"KHR_materials_pbrSpecularGlossiness":{"diffuseFactor":[1,1,1,1],"diffuseTexture":{"index":0,"texCoord":0},"glossinessFactor":0.77,"specularFactor":[0,0,0],"specularGlossinessTexture":{"index":1,"texCoord":0}}},"name":"Material.001","alphaMode":"OPAQUE"}],"meshes":[{"primitives":[{"attributes":{"NORMAL":1,"POSITION":0,"TANGENT":2,"TEXCOORD_0":3},"indices":4,"material":0,"mode":4}]}],"nodes":[{"children":[1],"name":"RootNode (gltf orientation matrix)","rotation":[-0.7071067811865475,0,0,0.7071067811865476],"translation":[0,0,0],"scale":[1,1,1]},{"children":[2],"name":"RootNode (model correction matrix)"},{"children":[3],"matrix":[1,0,0,0,0,1,0,0,0,0,1,0,-3.283910036087036,-1.7612550258636475,-0.2736299932003021,1],"name":"2e5978eb65304577a768653d13194b09.obj.cleaner.gles"},{"children":[4],"name":""},{"mesh":0,"name":""}],"samplers":[{"magFilter":9729,"minFilter":9987,"wrapS":10497,"wrapT":10497}],"scene":0,"scenes":[{"name":"OSG_Scene","nodes":[0]}],"textures":[{"sampler":0,"source":0},{"sampler":0,"source":1}]}
